<svg width="42" height="32" viewBox="0 0 42 32" fill="none" xmlns="http://www.w3.org/2000/svg">
<path d="M17.0175 2.45053C16.6905 1.51358 16.3605 0.568898 16.3545 0.556529C16.197 0.19319 15.8325 -0.0356364 15.4485 0.0045628C15.2055 0.0246624 9.456 0.534883 5.772 3.58847C3.846 5.42217 0 16.143 0 25.412C0 25.5759 0.0405001 25.7351 0.12 25.8774C2.7765 30.6858 10.0185 31.9443 11.6685 31.9985C11.679 32 11.688 32 11.697 32C11.988 32 12.261 31.8562 12.435 31.6135L14.22 29.1211C11.271 28.6588 10.7385 28.0558 10.614 27.9615C9.948 27.4559 9.456 26.7478 10.053 25.8542C10.512 25.16 11.475 24.9311 12.213 25.3223C12.969 25.6856 14.9925 26.8545 21 26.8236C26.9655 26.805 29.5845 25.5171 29.622 25.4893C30.624 25.0239 31.4055 25.2156 31.893 25.9052C32.4735 26.8437 32.0595 27.4791 31.3965 27.9832C31.272 28.0775 30.9705 28.3419 27.8025 29.1149L29.565 31.6119C29.7375 31.8562 30.012 31.9985 30.303 31.9985C30.3135 31.9985 30.3225 31.9985 30.3315 31.9969C31.983 31.9428 39.225 30.6842 41.88 25.8758C41.9595 25.7336 42 25.5743 42 25.4104C42 16.143 38.154 5.42217 36.18 3.54827C32.544 0.536429 26.7945 0.0262085 26.5515 0.0045628C26.1675 -0.0294519 25.803 0.194736 25.6455 0.556529C25.6395 0.568898 25.3185 1.52904 25.008 2.45517C25.008 2.45517 22.5615 2.08564 21 2.08564C19.4385 2.08564 17.0175 2.45053 17.0175 2.45053ZM15 22.1852C13.3425 22.1852 12 20.1242 12 17.5793C12 15.0344 13.3425 12.9734 15 12.9734C16.6635 12.7183 17.964 15.0344 18 17.5793C18 20.1242 16.6575 22.1852 15 22.1852ZM27 22.1852C25.3425 22.1852 24 20.1103 24 17.5515C24 14.9927 25.3425 12.9178 27 12.9178C28.6575 12.9178 30 14.9927 30 17.5515C30 20.1103 28.6575 22.1852 27 22.1852Z" fill="white"/>
</svg>
