<svg width="41" height="31" viewBox="0 0 41 31" fill="none" xmlns="http://www.w3.org/2000/svg">
<path d="M41 3.66941C39.4909 4.29296 37.8699 4.71258 36.1685 4.90184C37.9062 3.9335 39.2386 2.4003 39.8662 0.5722C38.2421 1.46865 36.4413 2.12007 34.5238 2.47219C32.9895 0.950731 30.804 0 28.3851 0C23.7397 0 19.9741 3.50509 19.9741 7.82593C19.9741 8.43921 20.0498 9.03782 20.1917 9.60855C13.2015 9.28283 7.00442 6.16655 2.85412 1.4305C2.13192 2.58663 1.7172 3.93057 1.7172 5.36694C1.7172 8.08121 3.20103 10.4771 5.45752 11.8797C4.07934 11.8387 2.78159 11.4865 1.64782 10.9011C1.64782 10.9349 1.64782 10.9657 1.64782 10.9994C1.64782 14.7921 4.54609 17.9553 8.39522 18.6728C7.69036 18.8518 6.94608 18.9471 6.17815 18.9471C5.63728 18.9471 5.10903 18.8972 4.59655 18.8078C5.66724 21.9167 8.77366 24.1806 12.4541 24.2436C9.57629 26.3432 5.9495 27.5947 2.00735 27.5947C1.3293 27.5947 0.659129 27.558 0 27.4846C3.72297 29.7045 8.14292 31 12.894 31C28.3662 31 36.8245 19.0748 36.8245 8.73264C36.8245 8.39372 36.8166 8.05627 36.8008 7.72029C38.4455 6.6155 39.8725 5.23782 41 3.66941Z" fill="white"/>
</svg>
